<svg id="svg" version="1.1" xmlns="http://www.w3.org/2000/svg" xmlns:xlink="http://www.w3.org/1999/xlink" width="400" height="300.2932551319648" viewBox="0, 0, 400,300.2932551319648"><g id="svgg"><path id="path0" d="M58.297 1.694 C 51.468 4.129,45.258 8.917,35.575 19.210 C 21.776 33.878,22.190 32.243,29.327 43.881 C 36.243 55.158,36.133 56.305,28.141 56.305 C 11.313 56.305,9.123 58.151,4.662 76.097 C -9.458 132.900,12.706 196.604,58.335 230.365 C 74.242 242.135,97.267 254.452,90.256 247.440 C 67.208 224.393,59.924 174.755,74.686 141.349 C 88.110 110.972,90.607 100.599,90.783 74.487 C 90.950 49.590,87.728 34.148,78.055 13.490 C 71.750 0.025,68.468 -1.934,58.297 1.694 M330.389 4.988 C 319.846 15.532,310.850 47.769,310.850 75.011 C 310.850 99.534,314.161 114.488,324.808 138.050 C 341.910 175.898,337.653 217.007,313.506 247.214 C 308.502 253.473,309.109 253.429,321.681 246.611 C 336.464 238.594,349.404 228.666,361.329 216.192 C 375.639 201.224,375.274 202.572,367.801 192.257 C 360.278 181.873,359.864 182.587,372.604 183.989 C 385.118 185.366,384.585 185.720,389.868 172.522 C 404.321 136.412,403.896 86.855,388.855 54.301 C 373.751 21.611,341.212 -5.835,330.389 4.988 M130.656 176.500 C 94.768 194.572,83.402 234.533,110.028 249.025 C 123.976 256.617,151.104 259.693,161.916 254.909 C 179.024 247.339,184.448 217.593,173.199 193.023 C 164.330 173.650,148.514 167.508,130.656 176.500 M243.383 175.281 C 222.700 187.681,215.856 231.020,231.795 248.663 C 245.118 263.409,290.350 257.577,302.725 239.517 C 321.239 212.497,271.362 158.506,243.383 175.281 M190.029 232.550 C 171.410 242.500,175.081 269.964,195.951 276.852 C 209.124 281.199,227.385 263.519,224.669 249.046 C 221.798 233.739,203.823 225.179,190.029 232.550 M100.880 259.863 C 100.880 260.207,102.154 262.978,103.711 266.021 C 126.355 310.272,269.657 311.338,296.658 267.457 C 300.943 260.492,300.774 260.420,292.236 265.560 C 247.842 292.287,146.418 291.115,107.882 263.429 C 102.100 259.275,100.880 258.654,100.880 259.863 " stroke="none" fill="#ffffff" fill-rule="evenodd"></path></g></svg>